<svg width="1128" height="101" viewBox="0 0 1128 101" fill="none" xmlns="http://www.w3.org/2000/svg">
<g filter="url(#filter0_i_640_26)">
<rect x="510" y="10" width="610" height="84" rx="42" fill="url(#paint0_radial_640_26)"/>
</g>
<rect x="509.5" y="9.5" width="611" height="85" rx="42.5" stroke="#272829"/>
<path d="M12.2 38.4C17.8 38.4 22.55 35.1 22.55 29.5C22.55 18.4 8.75 21.15 8.75 15.95C8.75 14.25 10.05 13.45 11.65 13.45C13.35 13.45 15.05 14.4 16.55 16.05L20.95 11.85C18.75 9.3 15.4 7.6 11.7 7.6C6.95 7.6 2.1 10.45 2.1 16.45C2.1 26.65 15.95 24.2 15.95 29.45C15.95 31.1 14.55 32.2 12.25 32.2C9.5 32.2 7.35 30.65 6.25 28.3L0.8 31.7C2.75 35.45 6.95 38.4 12.2 38.4ZM35.6109 38.4C41.6609 38.4 45.0109 35.25 45.0109 30.35V18H38.6609V29.5C38.6609 31.4 37.3609 32.75 35.6109 32.75C33.9109 32.75 32.6109 31.4 32.6109 29.5V18H26.2109V30.35C26.2109 35.25 29.5609 38.4 35.6109 38.4ZM62.6281 17.6C60.3281 17.6 58.4281 18.4 56.9281 19.75V3.75H50.5281V38L56.9281 38.05V36.25C58.4281 37.6 60.3281 38.4 62.6281 38.4C68.1281 38.4 72.4781 33.8 72.4781 28C72.4781 22.2 68.1281 17.6 62.6281 17.6ZM61.3781 32.75C58.7281 32.75 56.6281 30.65 56.6281 28C56.6281 25.35 58.7281 23.25 61.3781 23.25C64.0281 23.25 66.1281 25.35 66.1281 28C66.1281 30.65 64.0281 32.75 61.3781 32.75ZM83.4234 38.4C87.9234 38.4 90.6734 35.65 90.6734 31.9C90.6734 27.9 87.3734 26.3 84.5234 25.2C83.0734 24.6 82.3734 24.3 82.3734 23.55C82.3734 22.9 82.8734 22.4 83.9734 22.4C85.2734 22.4 86.4734 23.1 87.0734 23.85L90.2734 20.25C88.7734 18.75 86.3234 17.6 83.5234 17.6C78.9734 17.6 76.0734 20.6 76.0734 24C76.0734 28 80.0734 29.35 82.3734 30.2C84.1734 30.9 84.7734 31.4 84.7734 32.1C84.7734 32.9 84.0734 33.35 83.0234 33.35C81.9734 33.35 80.5734 32.95 79.6734 31.25L74.9734 33.6C76.1734 36.7 79.8734 38.4 83.4234 38.4ZM104.341 38.4C110.341 38.4 114.441 34.9 115.291 29.9H108.691C108.041 31.6 106.391 32.7 104.341 32.75C101.591 32.7 99.5906 30.7 99.5906 28C99.5906 25.3 101.591 23.3 104.341 23.25C106.391 23.3 108.041 24.4 108.691 26.1H115.291C114.441 21.1 110.341 17.6 104.341 17.6C97.6406 17.6 93.1906 22 93.1906 28C93.1906 34 97.6406 38.4 104.341 38.4ZM131.395 17.6C129.045 17.6 127.095 18.8 125.795 20.75V18H119.395V38H125.795V28.45C125.795 25.15 128.045 23.25 131.195 23.25C131.945 23.25 132.595 23.35 133.045 23.45V17.8C132.595 17.65 131.995 17.6 131.395 17.6ZM139.18 14.65C141.08 14.65 142.68 13.05 142.68 11.15C142.68 9.2 141.08 7.65 139.18 7.65C137.28 7.65 135.68 9.2 135.68 11.15C135.68 13.05 137.28 14.65 139.18 14.65ZM135.98 38H142.33V18H135.98V38ZM160.48 17.6C158.18 17.6 156.28 18.4 154.78 19.75V3.75H148.38V38L154.78 38.05V36.25C156.28 37.6 158.18 38.4 160.48 38.4C165.98 38.4 170.33 33.8 170.33 28C170.33 22.2 165.98 17.6 160.48 17.6ZM159.23 32.75C156.58 32.75 154.48 30.65 154.48 28C154.48 25.35 156.58 23.25 159.23 23.25C161.88 23.25 163.98 25.35 163.98 28C163.98 30.65 161.88 32.75 159.23 32.75ZM195.175 27.95C195.175 21.7 190.875 17.55 184.425 17.55C177.975 17.55 173.425 21.75 173.425 28C173.425 34.25 177.925 38.4 184.625 38.4C190.175 38.4 193.875 35.45 194.875 31.1H188.725C188.175 32.7 186.725 33.65 184.525 33.65C181.625 33.65 180.125 31.9 179.875 29.05H195.175V27.95ZM184.525 22.45C186.675 22.45 187.925 23.45 188.575 25.2H180.275C180.925 23.5 182.275 22.45 184.525 22.45ZM213.322 27.6H218.122L218.922 7.25H212.572L213.322 27.6ZM215.722 38.4C217.722 38.4 219.272 36.8 219.272 34.9C219.272 32.95 217.722 31.35 215.722 31.35C213.822 31.35 212.222 32.95 212.222 34.9C212.222 36.8 213.822 38.4 215.722 38.4Z" fill="#30FBEF"/>
<path d="M7.56 78.5H1.3725V79.94H6.12V88.58C6.12 89.9075 5.2875 90.74 4.14 90.74C3.105 90.74 2.3175 90.02 2.205 88.895L0.7425 89.21C0.945 91.055 2.25 92.18 4.14 92.18C6.1875 92.18 7.56 90.8525 7.56 88.7375V78.5ZM14.6046 92.18C17.1921 92.18 19.2846 90.0875 19.2846 87.5C19.2846 84.9125 17.1921 82.82 14.6046 82.82C12.0171 82.82 9.92461 84.9125 9.92461 87.5C9.92461 90.0875 12.0171 92.18 14.6046 92.18ZM14.6046 90.785C12.7821 90.785 11.3196 89.3225 11.3196 87.5C11.3196 85.6775 12.7821 84.215 14.6046 84.215C16.4046 84.215 17.8896 85.6775 17.8896 87.5C17.8896 89.3225 16.4046 90.785 14.6046 90.785ZM22.8227 81.3125C23.3402 81.3125 23.7902 80.885 23.7902 80.3675C23.7902 79.805 23.3402 79.4 22.8227 79.4C22.2827 79.4 21.8327 79.805 21.8327 80.3675C21.8327 80.885 22.2827 81.3125 22.8227 81.3125ZM22.1252 92H23.5202V83H22.1252V92ZM30.5325 82.82C29.7 82.82 28.935 83.1575 28.35 83.72V83H26.955V92H28.35V86.2625C28.35 85.115 29.2725 84.215 30.42 84.215C31.5675 84.215 32.4675 85.115 32.4675 86.2625V92H33.8625V86.2625C33.8625 84.35 32.265 82.82 30.5325 82.82ZM46.4913 92.18C49.0788 92.18 51.1713 90.0875 51.1713 87.5C51.1713 84.9125 49.0788 82.82 46.4913 82.82C43.9038 82.82 41.8113 84.9125 41.8113 87.5C41.8113 90.0875 43.9038 92.18 46.4913 92.18ZM46.4913 90.785C44.6688 90.785 43.2063 89.3225 43.2063 87.5C43.2063 85.6775 44.6688 84.215 46.4913 84.215C48.2913 84.215 49.7763 85.6775 49.7763 87.5C49.7763 89.3225 48.2913 90.785 46.4913 90.785ZM56.9145 92.18C58.917 92.18 60.2895 90.8525 60.2895 88.76V83H58.917V88.6025C58.917 89.9525 58.0845 90.785 56.9145 90.785C55.767 90.785 54.912 89.9525 54.912 88.6025V83H53.5395V88.76C53.5395 90.8525 54.8895 92.18 56.9145 92.18ZM67.6413 82.82C66.3588 82.82 65.3238 83.3825 64.6488 84.2825V83H63.2538V92H64.6488V87.1175C64.6488 85.475 65.9988 84.215 67.6413 84.215C67.9113 84.215 68.1363 84.2375 68.3388 84.305V82.8875C68.1363 82.8425 67.9113 82.82 67.6413 82.82ZM79.0833 82.82C78.2508 82.82 77.4858 83.1575 76.9008 83.72V83H75.5058V92H76.9008V86.2625C76.9008 85.115 77.8233 84.215 78.9708 84.215C80.1183 84.215 81.0183 85.115 81.0183 86.2625V92H82.4133V86.2625C82.4133 84.35 80.8158 82.82 79.0833 82.82ZM94.308 87.41C94.2405 84.8225 92.193 82.82 89.628 82.82C87.0405 82.82 84.948 84.9125 84.948 87.5C84.948 90.0875 87.0405 92.18 89.628 92.18C91.7655 92.18 93.543 90.7625 94.128 88.8275H92.643C92.148 89.9975 90.978 90.785 89.628 90.785C87.8505 90.785 86.433 89.435 86.343 87.7025H94.2855L94.308 87.41ZM89.628 84.215C91.068 84.215 92.283 85.1375 92.7105 86.4425H86.523C86.973 85.1375 88.188 84.215 89.628 84.215ZM107.973 83L105.588 90.38L103.136 83H101.808L99.3558 90.335L97.0158 83H95.4408L98.5458 92H100.076L102.483 84.935L104.868 92H106.398L109.481 83H107.973ZM113.557 92.18C115.132 92.18 116.438 91.1225 116.438 89.57C116.438 87.95 115.087 87.32 113.917 86.8475C112.815 86.375 112.252 86.1275 112.252 85.34C112.252 84.575 112.77 84.215 113.512 84.215C114.097 84.215 114.615 84.4625 114.862 84.935L116.077 84.305C115.74 83.495 114.593 82.82 113.445 82.82C112.117 82.82 110.835 83.7425 110.835 85.385C110.835 86.8025 111.78 87.5225 113.377 88.13C114.457 88.5575 115.042 88.85 115.042 89.57C115.042 90.3575 114.367 90.8075 113.557 90.8075C112.725 90.8075 111.915 90.335 111.78 89.6825L110.43 90.2225C110.767 91.3025 112.117 92.18 113.557 92.18ZM118.783 92H120.178V75.44H118.783V92ZM132.189 87.41C132.121 84.8225 130.074 82.82 127.509 82.82C124.921 82.82 122.829 84.9125 122.829 87.5C122.829 90.0875 124.921 92.18 127.509 92.18C129.646 92.18 131.424 90.7625 132.009 88.8275H130.524C130.029 89.9975 128.859 90.785 127.509 90.785C125.731 90.785 124.314 89.435 124.224 87.7025H132.166L132.189 87.41ZM127.509 84.215C128.949 84.215 130.164 85.1375 130.591 86.4425H124.404C124.854 85.1375 126.069 84.215 127.509 84.215ZM138.902 84.35V83H136.494V79.085H135.099V83H133.592V84.35H135.099V89.6375C135.099 91.055 136.292 92.18 137.687 92.18C138.137 92.18 138.632 92.045 138.879 91.8875V90.83H137.844C137.124 90.83 136.494 90.29 136.494 89.4575V84.35H138.902ZM145.423 84.35V83H143.016V79.085H141.621V83H140.113V84.35H141.621V89.6375C141.621 91.055 142.813 92.18 144.208 92.18C144.658 92.18 145.153 92.045 145.401 91.8875V90.83H144.366C143.646 90.83 143.016 90.29 143.016 89.4575V84.35H145.423ZM156.535 87.41C156.467 84.8225 154.42 82.82 151.855 82.82C149.267 82.82 147.175 84.9125 147.175 87.5C147.175 90.0875 149.267 92.18 151.855 92.18C153.992 92.18 155.77 90.7625 156.355 88.8275H154.87C154.375 89.9975 153.205 90.785 151.855 90.785C150.077 90.785 148.66 89.435 148.57 87.7025H156.512L156.535 87.41ZM151.855 84.215C153.295 84.215 154.51 85.1375 154.937 86.4425H148.75C149.2 85.1375 150.415 84.215 151.855 84.215ZM163.495 82.82C162.212 82.82 161.177 83.3825 160.502 84.2825V83H159.107V92H160.502V87.1175C160.502 85.475 161.852 84.215 163.495 84.215C163.765 84.215 163.99 84.2375 164.192 84.305V82.8875C163.99 82.8425 163.765 82.82 163.495 82.82ZM175.499 84.35V83H173.092V79.085H171.697V83H170.189V84.35H171.697V89.6375C171.697 91.055 172.889 92.18 174.284 92.18C174.734 92.18 175.229 92.045 175.477 91.8875V90.83H174.442C173.722 90.83 173.092 90.29 173.092 89.4575V84.35H175.499ZM181.931 92.18C184.518 92.18 186.611 90.0875 186.611 87.5C186.611 84.9125 184.518 82.82 181.931 82.82C179.343 82.82 177.251 84.9125 177.251 87.5C177.251 90.0875 179.343 92.18 181.931 92.18ZM181.931 90.785C180.108 90.785 178.646 89.3225 178.646 87.5C178.646 85.6775 180.108 84.215 181.931 84.215C183.731 84.215 185.216 85.6775 185.216 87.5C185.216 89.3225 183.731 90.785 181.931 90.785ZM198.263 82.82C197.43 82.82 196.665 83.1575 196.08 83.72V83H194.685V92H196.08V86.2625C196.08 85.115 197.003 84.215 198.15 84.215C199.298 84.215 200.198 85.115 200.198 86.2625V92H201.593V86.2625C201.593 84.35 199.995 82.82 198.263 82.82ZM213.488 87.41C213.42 84.8225 211.373 82.82 208.808 82.82C206.22 82.82 204.128 84.9125 204.128 87.5C204.128 90.0875 206.22 92.18 208.808 92.18C210.945 92.18 212.723 90.7625 213.308 88.8275H211.823C211.328 89.9975 210.158 90.785 208.808 90.785C207.03 90.785 205.613 89.435 205.523 87.7025H213.465L213.488 87.41ZM208.808 84.215C210.248 84.215 211.463 85.1375 211.89 86.4425H205.703C206.153 85.1375 207.368 84.215 208.808 84.215ZM221.685 83L218.918 90.38L216.128 83H214.62L218.22 92H219.57L223.193 83H221.685ZM233.773 87.41C233.705 84.8225 231.658 82.82 229.093 82.82C226.505 82.82 224.413 84.9125 224.413 87.5C224.413 90.0875 226.505 92.18 229.093 92.18C231.23 92.18 233.008 90.7625 233.593 88.8275H232.108C231.613 89.9975 230.443 90.785 229.093 90.785C227.315 90.785 225.898 89.435 225.808 87.7025H233.75L233.773 87.41ZM229.093 84.215C230.533 84.215 231.748 85.1375 232.175 86.4425H225.988C226.438 85.1375 227.653 84.215 229.093 84.215ZM240.733 82.82C239.451 82.82 238.416 83.3825 237.741 84.2825V83H236.346V92H237.741V87.1175C237.741 85.475 239.091 84.215 240.733 84.215C241.003 84.215 241.228 84.2375 241.431 84.305V82.8875C241.228 82.8425 241.003 82.82 240.733 82.82ZM257.215 82.82C256.135 82.82 255.19 83.3375 254.583 84.17C253.975 83.3375 253.03 82.82 252.085 82.82C251.275 82.82 250.533 83.225 249.993 83.8325V83H248.598V92H249.993V86.24C249.993 85.115 250.848 84.215 251.95 84.215C253.008 84.215 253.885 85.115 253.885 86.24V92H255.28V86.24C255.28 85.115 256.158 84.215 257.215 84.215C258.295 84.215 259.173 85.115 259.173 86.24V92H260.568V86.24C260.568 84.35 259.083 82.82 257.215 82.82ZM264.592 81.3125C265.11 81.3125 265.56 80.885 265.56 80.3675C265.56 79.805 265.11 79.4 264.592 79.4C264.052 79.4 263.602 79.805 263.602 80.3675C263.602 80.885 264.052 81.3125 264.592 81.3125ZM263.895 92H265.29V83H263.895V92ZM270.952 92.18C272.527 92.18 273.832 91.1225 273.832 89.57C273.832 87.95 272.482 87.32 271.312 86.8475C270.21 86.375 269.647 86.1275 269.647 85.34C269.647 84.575 270.165 84.215 270.907 84.215C271.492 84.215 272.01 84.4625 272.257 84.935L273.472 84.305C273.135 83.495 271.987 82.82 270.84 82.82C269.512 82.82 268.23 83.7425 268.23 85.385C268.23 86.8025 269.175 87.5225 270.772 88.13C271.852 88.5575 272.437 88.85 272.437 89.57C272.437 90.3575 271.762 90.8075 270.952 90.8075C270.12 90.8075 269.31 90.335 269.175 89.6825L267.825 90.2225C268.162 91.3025 269.512 92.18 270.952 92.18ZM278.405 92.18C279.98 92.18 281.285 91.1225 281.285 89.57C281.285 87.95 279.935 87.32 278.765 86.8475C277.663 86.375 277.1 86.1275 277.1 85.34C277.1 84.575 277.618 84.215 278.36 84.215C278.945 84.215 279.463 84.4625 279.71 84.935L280.925 84.305C280.588 83.495 279.44 82.82 278.293 82.82C276.965 82.82 275.683 83.7425 275.683 85.385C275.683 86.8025 276.628 87.5225 278.225 88.13C279.305 88.5575 279.89 88.85 279.89 89.57C279.89 90.3575 279.215 90.8075 278.405 90.8075C277.573 90.8075 276.763 90.335 276.628 89.6825L275.278 90.2225C275.615 91.3025 276.965 92.18 278.405 92.18ZM298.697 90.83C298.202 90.83 297.775 90.4925 297.775 89.66V83H296.38V84.17C295.547 83.3375 294.377 82.82 293.095 82.82C290.507 82.82 288.415 84.9125 288.415 87.5C288.415 90.0875 290.507 92.18 293.095 92.18C294.445 92.18 295.66 91.55 296.515 90.6275C296.807 91.55 297.527 92.18 298.585 92.18C298.832 92.18 299.08 92.1125 299.26 92V90.83H298.697ZM293.095 90.785C291.272 90.785 289.81 89.3225 289.81 87.5C289.81 85.6775 291.272 84.215 293.095 84.215C294.895 84.215 296.38 85.6775 296.38 87.5C296.38 89.3225 294.895 90.785 293.095 90.785ZM304.751 82.82C303.919 82.82 303.154 83.1575 302.569 83.72V83H301.174V92H302.569V86.2625C302.569 85.115 303.491 84.215 304.639 84.215C305.786 84.215 306.686 85.115 306.686 86.2625V92H308.081V86.2625C308.081 84.35 306.484 82.82 304.751 82.82ZM317.029 83L314.239 90.38L311.359 83H309.806L313.496 92.0675L311.336 97.4H312.821L314.734 92.675L318.604 83H317.029ZM325.871 92H327.266V75.44H325.871V92ZM340.199 90.83C339.704 90.83 339.277 90.4925 339.277 89.66V83H337.882V84.17C337.049 83.3375 335.879 82.82 334.597 82.82C332.009 82.82 329.917 84.9125 329.917 87.5C329.917 90.0875 332.009 92.18 334.597 92.18C335.947 92.18 337.162 91.55 338.017 90.6275C338.309 91.55 339.029 92.18 340.087 92.18C340.334 92.18 340.582 92.1125 340.762 92V90.83H340.199ZM334.597 90.785C332.774 90.785 331.312 89.3225 331.312 87.5C331.312 85.6775 332.774 84.215 334.597 84.215C336.397 84.215 337.882 85.6775 337.882 87.5C337.882 89.3225 336.397 90.785 334.597 90.785ZM346.816 84.35V83H344.408V79.085H343.013V83H341.506V84.35H343.013V89.6375C343.013 91.055 344.206 92.18 345.601 92.18C346.051 92.18 346.546 92.045 346.793 91.8875V90.83H345.758C345.038 90.83 344.408 90.29 344.408 89.4575V84.35H346.816ZM357.927 87.41C357.86 84.8225 355.812 82.82 353.247 82.82C350.66 82.82 348.567 84.9125 348.567 87.5C348.567 90.0875 350.66 92.18 353.247 92.18C355.385 92.18 357.162 90.7625 357.747 88.8275H356.262C355.767 89.9975 354.597 90.785 353.247 90.785C351.47 90.785 350.052 89.435 349.962 87.7025H357.905L357.927 87.41ZM353.247 84.215C354.687 84.215 355.902 85.1375 356.33 86.4425H350.142C350.592 85.1375 351.807 84.215 353.247 84.215ZM362.727 92.18C364.302 92.18 365.607 91.1225 365.607 89.57C365.607 87.95 364.257 87.32 363.087 86.8475C361.985 86.375 361.422 86.1275 361.422 85.34C361.422 84.575 361.94 84.215 362.682 84.215C363.267 84.215 363.785 84.4625 364.032 84.935L365.247 84.305C364.91 83.495 363.762 82.82 362.615 82.82C361.287 82.82 360.005 83.7425 360.005 85.385C360.005 86.8025 360.95 87.5225 362.547 88.13C363.627 88.5575 364.212 88.85 364.212 89.57C364.212 90.3575 363.537 90.8075 362.727 90.8075C361.895 90.8075 361.085 90.335 360.95 89.6825L359.6 90.2225C359.937 91.3025 361.287 92.18 362.727 92.18ZM372.093 84.35V83H369.686V79.085H368.291V83H366.783V84.35H368.291V89.6375C368.291 91.055 369.483 92.18 370.878 92.18C371.328 92.18 371.823 92.045 372.071 91.8875V90.83H371.036C370.316 90.83 369.686 90.29 369.686 89.4575V84.35H372.093ZM383.466 82.82C382.634 82.82 381.869 83.1575 381.284 83.72V83H379.889V92H381.284V86.2625C381.284 85.115 382.206 84.215 383.354 84.215C384.501 84.215 385.401 85.115 385.401 86.2625V92H386.796V86.2625C386.796 84.35 385.199 82.82 383.466 82.82ZM398.691 87.41C398.623 84.8225 396.576 82.82 394.011 82.82C391.423 82.82 389.331 84.9125 389.331 87.5C389.331 90.0875 391.423 92.18 394.011 92.18C396.148 92.18 397.926 90.7625 398.511 88.8275H397.026C396.531 89.9975 395.361 90.785 394.011 90.785C392.233 90.785 390.816 89.435 390.726 87.7025H398.668L398.691 87.41ZM394.011 84.215C395.451 84.215 396.666 85.1375 397.093 86.4425H390.906C391.356 85.1375 392.571 84.215 394.011 84.215ZM412.356 83L409.971 90.38L407.519 83H406.191L403.739 90.335L401.399 83H399.824L402.929 92H404.459L406.866 84.935L409.251 92H410.781L413.864 83H412.356ZM417.94 92.18C419.515 92.18 420.82 91.1225 420.82 89.57C420.82 87.95 419.47 87.32 418.3 86.8475C417.198 86.375 416.635 86.1275 416.635 85.34C416.635 84.575 417.153 84.215 417.895 84.215C418.48 84.215 418.998 84.4625 419.245 84.935L420.46 84.305C420.123 83.495 418.975 82.82 417.828 82.82C416.5 82.82 415.218 83.7425 415.218 85.385C415.218 86.8025 416.163 87.5225 417.76 88.13C418.84 88.5575 419.425 88.85 419.425 89.57C419.425 90.3575 418.75 90.8075 417.94 90.8075C417.108 90.8075 416.298 90.335 416.163 89.6825L414.813 90.2225C415.15 91.3025 416.5 92.18 417.94 92.18ZM423.661 92.18C424.336 92.18 424.898 91.6175 424.898 90.9425C424.898 90.2675 424.336 89.705 423.661 89.705C423.008 89.705 422.423 90.2675 422.423 90.9425C422.423 91.6175 423.008 92.18 423.661 92.18Z" fill="white"/>
<path d="M553.135 44.895V43.5H545.755V57H553.135V55.605H547.195V50.9475H552.37V49.5525H547.195V44.895H553.135ZM559.697 47.82C558.864 47.82 558.099 48.1575 557.514 48.72V48H556.119V57H557.514V51.2625C557.514 50.115 558.437 49.215 559.584 49.215C560.732 49.215 561.632 50.115 561.632 51.2625V57H563.027V51.2625C563.027 49.35 561.429 47.82 559.697 47.82ZM570.331 49.35V48H567.924V44.085H566.529V48H565.021V49.35H566.529V54.6375C566.529 56.055 567.721 57.18 569.116 57.18C569.566 57.18 570.061 57.045 570.309 56.8875V55.83H569.274C568.554 55.83 567.924 55.29 567.924 54.4575V49.35H570.331ZM581.443 52.41C581.375 49.8225 579.328 47.82 576.763 47.82C574.175 47.82 572.083 49.9125 572.083 52.5C572.083 55.0875 574.175 57.18 576.763 57.18C578.9 57.18 580.678 55.7625 581.263 53.8275H579.778C579.283 54.9975 578.113 55.785 576.763 55.785C574.985 55.785 573.568 54.435 573.478 52.7025H581.42L581.443 52.41ZM576.763 49.215C578.203 49.215 579.418 50.1375 579.845 51.4425H573.658C574.108 50.1375 575.323 49.215 576.763 49.215ZM588.403 47.82C587.121 47.82 586.086 48.3825 585.411 49.2825V48H584.016V57H585.411V52.1175C585.411 50.475 586.761 49.215 588.403 49.215C588.673 49.215 588.898 49.2375 589.101 49.305V47.8875C588.898 47.8425 588.673 47.82 588.403 47.82ZM602.05 48L599.26 55.38L596.38 48H594.827L598.518 57.0675L596.357 62.4H597.842L599.755 57.675L603.625 48H602.05ZM609.528 57.18C612.116 57.18 614.208 55.0875 614.208 52.5C614.208 49.9125 612.116 47.82 609.528 47.82C606.941 47.82 604.848 49.9125 604.848 52.5C604.848 55.0875 606.941 57.18 609.528 57.18ZM609.528 55.785C607.706 55.785 606.243 54.3225 606.243 52.5C606.243 50.6775 607.706 49.215 609.528 49.215C611.328 49.215 612.813 50.6775 612.813 52.5C612.813 54.3225 611.328 55.785 609.528 55.785ZM619.952 57.18C621.954 57.18 623.327 55.8525 623.327 53.76V48H621.954V53.6025C621.954 54.9525 621.122 55.785 619.952 55.785C618.804 55.785 617.949 54.9525 617.949 53.6025V48H616.577V53.76C616.577 55.8525 617.927 57.18 619.952 57.18ZM630.678 47.82C629.396 47.82 628.361 48.3825 627.686 49.2825V48H626.291V57H627.686V52.1175C627.686 50.475 629.036 49.215 630.678 49.215C630.948 49.215 631.173 49.2375 631.376 49.305V47.8875C631.173 47.8425 630.948 47.82 630.678 47.82ZM647.273 52.41C647.205 49.8225 645.158 47.82 642.593 47.82C640.005 47.82 637.913 49.9125 637.913 52.5C637.913 55.0875 640.005 57.18 642.593 57.18C644.73 57.18 646.508 55.7625 647.093 53.8275H645.608C645.113 54.9975 643.943 55.785 642.593 55.785C640.815 55.785 639.398 54.435 639.308 52.7025H647.25L647.273 52.41ZM642.593 49.215C644.033 49.215 645.248 50.1375 645.675 51.4425H639.488C639.938 50.1375 641.153 49.215 642.593 49.215ZM649.103 52.995H655.403V51.645H649.103V52.995ZM666.584 47.82C665.504 47.82 664.559 48.3375 663.952 49.17C663.344 48.3375 662.399 47.82 661.454 47.82C660.644 47.82 659.902 48.225 659.362 48.8325V48H657.967V57H659.362V51.24C659.362 50.115 660.217 49.215 661.319 49.215C662.377 49.215 663.254 50.115 663.254 51.24V57H664.649V51.24C664.649 50.115 665.527 49.215 666.584 49.215C667.664 49.215 668.542 50.115 668.542 51.24V57H669.937V51.24C669.937 49.35 668.452 47.82 666.584 47.82ZM682.736 55.83C682.241 55.83 681.814 55.4925 681.814 54.66V48H680.419V49.17C679.586 48.3375 678.416 47.82 677.134 47.82C674.546 47.82 672.454 49.9125 672.454 52.5C672.454 55.0875 674.546 57.18 677.134 57.18C678.484 57.18 679.699 56.55 680.554 55.6275C680.846 56.55 681.566 57.18 682.624 57.18C682.871 57.18 683.119 57.1125 683.299 57V55.83H682.736ZM677.134 55.785C675.311 55.785 673.849 54.3225 673.849 52.5C673.849 50.6775 675.311 49.215 677.134 49.215C678.934 49.215 680.419 50.6775 680.419 52.5C680.419 54.3225 678.934 55.785 677.134 55.785ZM686.09 46.3125C686.608 46.3125 687.058 45.885 687.058 45.3675C687.058 44.805 686.608 44.4 686.09 44.4C685.55 44.4 685.1 44.805 685.1 45.3675C685.1 45.885 685.55 46.3125 686.09 46.3125ZM685.393 57H686.788V48H685.393V57ZM690.223 57H691.618V40.44H690.223V57ZM709.965 55.83C709.47 55.83 709.042 55.4925 709.042 54.66V48H707.647V49.17C706.815 48.3375 705.645 47.82 704.362 47.82C701.775 47.82 699.682 49.9125 699.682 52.5C699.682 55.0875 701.775 57.18 704.362 57.18C705.712 57.18 706.927 56.55 707.782 55.6275C708.075 56.55 708.795 57.18 709.852 57.18C710.1 57.18 710.347 57.1125 710.527 57V55.83H709.965ZM704.362 55.785C702.54 55.785 701.077 54.3225 701.077 52.5C701.077 50.6775 702.54 49.215 704.362 49.215C706.162 49.215 707.647 50.6775 707.647 52.5C707.647 54.3225 706.162 55.785 704.362 55.785ZM719.776 40.44V49.17C718.921 48.3375 717.774 47.82 716.491 47.82C713.904 47.82 711.811 49.9125 711.811 52.5C711.811 55.0875 713.904 57.18 716.491 57.18C717.774 57.18 718.921 56.6625 719.776 55.83V57H721.171V40.44H719.776ZM716.491 55.785C714.669 55.785 713.206 54.3225 713.206 52.5C713.206 50.6775 714.669 49.215 716.491 49.215C718.291 49.215 719.776 50.6775 719.776 52.5C719.776 54.3225 718.291 55.785 716.491 55.785ZM731.8 40.44V49.17C730.945 48.3375 729.797 47.82 728.515 47.82C725.927 47.82 723.835 49.9125 723.835 52.5C723.835 55.0875 725.927 57.18 728.515 57.18C729.797 57.18 730.945 56.6625 731.8 55.83V57H733.195V40.44H731.8ZM728.515 55.785C726.692 55.785 725.23 54.3225 725.23 52.5C725.23 50.6775 726.692 49.215 728.515 49.215C730.315 49.215 731.8 50.6775 731.8 52.5C731.8 54.3225 730.315 55.785 728.515 55.785ZM740.876 47.82C739.593 47.82 738.558 48.3825 737.883 49.2825V48H736.488V57H737.883V52.1175C737.883 50.475 739.233 49.215 740.876 49.215C741.146 49.215 741.371 49.2375 741.573 49.305V47.8875C741.371 47.8425 741.146 47.82 740.876 47.82ZM752.056 52.41C751.989 49.8225 749.941 47.82 747.376 47.82C744.789 47.82 742.696 49.9125 742.696 52.5C742.696 55.0875 744.789 57.18 747.376 57.18C749.514 57.18 751.291 55.7625 751.876 53.8275H750.391C749.896 54.9975 748.726 55.785 747.376 55.785C745.599 55.785 744.181 54.435 744.091 52.7025H752.034L752.056 52.41ZM747.376 49.215C748.816 49.215 750.031 50.1375 750.459 51.4425H744.271C744.721 50.1375 745.936 49.215 747.376 49.215ZM756.856 57.18C758.431 57.18 759.736 56.1225 759.736 54.57C759.736 52.95 758.386 52.32 757.216 51.8475C756.114 51.375 755.551 51.1275 755.551 50.34C755.551 49.575 756.069 49.215 756.811 49.215C757.396 49.215 757.914 49.4625 758.161 49.935L759.376 49.305C759.039 48.495 757.891 47.82 756.744 47.82C755.416 47.82 754.134 48.7425 754.134 50.385C754.134 51.8025 755.079 52.5225 756.676 53.13C757.756 53.5575 758.341 53.85 758.341 54.57C758.341 55.3575 757.666 55.8075 756.856 55.8075C756.024 55.8075 755.214 55.335 755.079 54.6825L753.729 55.2225C754.066 56.3025 755.416 57.18 756.856 57.18ZM764.309 57.18C765.884 57.18 767.189 56.1225 767.189 54.57C767.189 52.95 765.839 52.32 764.669 51.8475C763.567 51.375 763.004 51.1275 763.004 50.34C763.004 49.575 763.522 49.215 764.264 49.215C764.849 49.215 765.367 49.4625 765.614 49.935L766.829 49.305C766.492 48.495 765.344 47.82 764.197 47.82C762.869 47.82 761.587 48.7425 761.587 50.385C761.587 51.8025 762.532 52.5225 764.129 53.13C765.209 53.5575 765.794 53.85 765.794 54.57C765.794 55.3575 765.119 55.8075 764.309 55.8075C763.477 55.8075 762.667 55.335 762.532 54.6825L761.182 55.2225C761.519 56.3025 762.869 57.18 764.309 57.18ZM778.347 47.82C777.604 47.82 776.907 48.0675 776.344 48.4725V40.44H774.949V57H776.344V51.24C776.344 50.0925 777.244 49.215 778.347 49.215C779.449 49.215 780.372 50.0925 780.372 51.24V57H781.744V51.24C781.744 49.3275 780.237 47.82 778.347 47.82ZM793.646 52.41C793.578 49.8225 791.531 47.82 788.966 47.82C786.378 47.82 784.286 49.9125 784.286 52.5C784.286 55.0875 786.378 57.18 788.966 57.18C791.103 57.18 792.881 55.7625 793.466 53.8275H791.981C791.486 54.9975 790.316 55.785 788.966 55.785C787.188 55.785 785.771 54.435 785.681 52.7025H793.623L793.646 52.41ZM788.966 49.215C790.406 49.215 791.621 50.1375 792.048 51.4425H785.861C786.311 50.1375 787.526 49.215 788.966 49.215ZM800.606 47.82C799.324 47.82 798.289 48.3825 797.614 49.2825V48H796.219V57H797.614V52.1175C797.614 50.475 798.964 49.215 800.606 49.215C800.876 49.215 801.101 49.2375 801.304 49.305V47.8875C801.101 47.8425 800.876 47.82 800.606 47.82ZM811.787 52.41C811.719 49.8225 809.672 47.82 807.107 47.82C804.519 47.82 802.427 49.9125 802.427 52.5C802.427 55.0875 804.519 57.18 807.107 57.18C809.244 57.18 811.022 55.7625 811.607 53.8275H810.122C809.627 54.9975 808.457 55.785 807.107 55.785C805.329 55.785 803.912 54.435 803.822 52.7025H811.764L811.787 52.41ZM807.107 49.215C808.547 49.215 809.762 50.1375 810.189 51.4425H804.002C804.452 50.1375 805.667 49.215 807.107 49.215Z" fill="white"/>
<g filter="url(#filter1_dd_640_26)">
<rect x="953" y="27" width="150" height="50" rx="25" fill="#282828"/>
</g>
<path d="M1006.87 45H1001.37V46.28H1005.59V53.96C1005.59 55.14 1004.85 55.88 1003.83 55.88C1002.91 55.88 1002.21 55.24 1002.11 54.24L1000.81 54.52C1000.99 56.16 1002.15 57.16 1003.83 57.16C1005.65 57.16 1006.87 55.98 1006.87 54.1V45ZM1013.13 57.16C1015.43 57.16 1017.29 55.3 1017.29 53C1017.29 50.7 1015.43 48.84 1013.13 48.84C1010.83 48.84 1008.97 50.7 1008.97 53C1008.97 55.3 1010.83 57.16 1013.13 57.16ZM1013.13 55.92C1011.51 55.92 1010.21 54.62 1010.21 53C1010.21 51.38 1011.51 50.08 1013.13 50.08C1014.73 50.08 1016.05 51.38 1016.05 53C1016.05 54.62 1014.73 55.92 1013.13 55.92ZM1020.44 47.5C1020.9 47.5 1021.3 47.12 1021.3 46.66C1021.3 46.16 1020.9 45.8 1020.44 45.8C1019.96 45.8 1019.56 46.16 1019.56 46.66C1019.56 47.12 1019.96 47.5 1020.44 47.5ZM1019.82 57H1021.06V49H1019.82V57ZM1027.29 48.84C1026.55 48.84 1025.87 49.14 1025.35 49.64V49H1024.11V57H1025.35V51.9C1025.35 50.88 1026.17 50.08 1027.19 50.08C1028.21 50.08 1029.01 50.88 1029.01 51.9V57H1030.25V51.9C1030.25 50.2 1028.83 48.84 1027.29 48.84ZM1042.31 57.16C1044.93 57.16 1046.83 55.42 1046.83 53.06V45H1045.55V52.86C1045.55 54.6 1044.17 55.88 1042.31 55.88C1040.45 55.88 1039.09 54.6 1039.09 52.86V45H1037.81V53.06C1037.81 55.42 1039.71 57.16 1042.31 57.16ZM1051.67 57.16C1053.07 57.16 1054.23 56.22 1054.23 54.84C1054.23 53.4 1053.03 52.84 1051.99 52.42C1051.01 52 1050.51 51.78 1050.51 51.08C1050.51 50.4 1050.97 50.08 1051.63 50.08C1052.15 50.08 1052.61 50.3 1052.83 50.72L1053.91 50.16C1053.61 49.44 1052.59 48.84 1051.57 48.84C1050.39 48.84 1049.25 49.66 1049.25 51.12C1049.25 52.38 1050.09 53.02 1051.51 53.56C1052.47 53.94 1052.99 54.2 1052.99 54.84C1052.99 55.54 1052.39 55.94 1051.67 55.94C1050.93 55.94 1050.21 55.52 1050.09 54.94L1048.89 55.42C1049.19 56.38 1050.39 57.16 1051.67 57.16Z" fill="white"/>
<defs>
<filter id="filter0_i_640_26" x="509" y="9" width="614" height="88" filterUnits="userSpaceOnUse" color-interpolation-filters="sRGB">
<feFlood flood-opacity="0" result="BackgroundImageFix"/>
<feBlend mode="normal" in="SourceGraphic" in2="BackgroundImageFix" result="shape"/>
<feColorMatrix in="SourceAlpha" type="matrix" values="0 0 0 0 0 0 0 0 0 0 0 0 0 0 0 0 0 0 127 0" result="hardAlpha"/>
<feOffset dx="2" dy="2"/>
<feGaussianBlur stdDeviation="12.5"/>
<feComposite in2="hardAlpha" operator="arithmetic" k2="-1" k3="1"/>
<feColorMatrix type="matrix" values="0 0 0 0 0 0 0 0 0 0 0 0 0 0 0 0 0 0 0.3 0"/>
<feBlend mode="normal" in2="shape" result="effect1_innerShadow_640_26"/>
</filter>
<filter id="filter1_dd_640_26" x="942" y="16" width="173" height="72" filterUnits="userSpaceOnUse" color-interpolation-filters="sRGB">
<feFlood flood-opacity="0" result="BackgroundImageFix"/>
<feColorMatrix in="SourceAlpha" type="matrix" values="0 0 0 0 0 0 0 0 0 0 0 0 0 0 0 0 0 0 127 0" result="hardAlpha"/>
<feOffset dx="-3" dy="-3"/>
<feGaussianBlur stdDeviation="4"/>
<feColorMatrix type="matrix" values="0 0 0 0 0.294064 0 0 0 0 0.364384 0 0 0 0 0.405936 0 0 0 0.1 0"/>
<feBlend mode="normal" in2="BackgroundImageFix" result="effect1_dropShadow_640_26"/>
<feColorMatrix in="SourceAlpha" type="matrix" values="0 0 0 0 0 0 0 0 0 0 0 0 0 0 0 0 0 0 127 0" result="hardAlpha"/>
<feOffset dx="4" dy="3"/>
<feGaussianBlur stdDeviation="4"/>
<feColorMatrix type="matrix" values="0 0 0 0 0 0 0 0 0 0 0 0 0 0 0 0 0 0 0.25 0"/>
<feBlend mode="normal" in2="effect1_dropShadow_640_26" result="effect2_dropShadow_640_26"/>
<feBlend mode="normal" in="SourceGraphic" in2="effect2_dropShadow_640_26" result="shape"/>
</filter>
<radialGradient id="paint0_radial_640_26" cx="0" cy="0" r="1" gradientUnits="userSpaceOnUse" gradientTransform="translate(815 52) rotate(11.6873) scale(207.336 68.1187)">
<stop stop-color="#2E3134"/>
<stop offset="1" stop-color="#292B2E"/>
</radialGradient>
</defs>
</svg>
